<svg width="100" height="100" viewBox="0 0 100 100" fill="none" xmlns="http://www.w3.org/2000/svg">
<path fill-rule="evenodd" clip-rule="evenodd" d="M50 100C77.6143 100 100 77.6143 100 50C100 22.3857 77.6143 0 50 0C22.3857 0 0 22.3857 0 50C0 77.6143 22.3857 100 50 100ZM46.5 16.25H84.75V84H46.5V78.1106C47.2583 78.1541 48.2546 78.1329 48.7428 78.0469C51.4888 77.5549 53.9551 76.0096 55.6269 73.7339C57.1079 71.7116 57.9342 69.1924 58.1059 66.1564C58.2139 64.1788 58.0105 63.2049 57.216 62.0224C56.7646 61.3416 55.7985 60.4473 55.023 59.9801C54.9022 59.9106 54.9658 59.9255 55.1819 60.0249C55.7413 60.2782 57.4575 60.9193 58.9323 61.431C61.8435 62.4398 62.4474 62.6931 63.1529 63.2049C63.814 63.6819 64.5131 64.1092 67.3545 65.7639C72.7002 68.8744 73.3931 69.3116 73.8 69.8085C74.2195 70.3154 74.5436 71.1054 74.7407 72.0991C74.9186 72.9736 74.8996 75.7563 74.7153 77.4655C74.3656 80.581 74.3975 81.2369 74.8869 81.1176C75.7768 80.899 76.5714 76.9438 76.3553 73.8333C76.2409 72.2134 76.0629 71.2743 75.6751 70.2408C75.3764 69.4408 75.0204 68.9041 74.4229 68.3378C73.8952 67.8359 67.577 62.8621 65.9688 61.6745C65.4349 61.287 64.7356 60.8 64.4115 60.6013C60.7501 58.3355 56.3388 56.6809 53.6436 56.5616C53.3004 56.5466 53.0207 56.5267 53.0207 56.5219L53.7073 55.4486C54.3938 54.3902 54.756 53.6549 55.0548 52.7157L55.1946 52.2834L56.4405 52.0101C57.7695 51.7144 59.3344 51.3717 60.5799 51.0991L60.5835 51.0984C61.0105 51.0049 61.3998 50.9197 61.729 50.8474C62.8224 50.6139 62.8541 50.6089 63.7314 50.6139C64.3479 50.6189 65.1806 50.6735 66.4329 50.7977C71.3718 51.2846 72.8782 51.3741 75.6496 51.3195C75.7386 51.3195 76.012 51.3442 76.2535 51.3791C76.5777 51.4237 77.2134 51.4337 78.5736 51.4139C82.1015 51.3592 84.4851 51.0511 84.4851 50.6536C84.4851 50.5444 84.0339 50.3953 83.4618 50.3158C82.61 50.1965 81.6501 50.1419 78.7325 50.0624C77.2324 50.0176 75.8849 49.963 75.745 49.9381C75.6051 49.9133 75.0331 49.7691 74.4737 49.6201C72.3252 49.0387 68.8101 48.3232 66.4836 47.9904C65.4031 47.8362 63.8649 47.8362 62.5236 47.9952C61.1251 48.1592 58.9768 48.5021 57.2795 48.84C56.4595 48.999 55.773 49.1232 55.7604 49.1132C55.7476 49.1084 55.7858 48.7109 55.843 48.2387C55.8939 47.7667 55.9574 47.086 55.9828 46.7282L56.021 46.0822L56.8027 45.9481C59.873 45.4215 62.4029 44.373 64.367 42.8079C64.8246 42.4451 65.3078 42.1073 65.4476 42.0526C65.5874 41.9979 66.1723 41.8141 66.7506 41.6401C68.8738 41.0191 70.8824 40.1396 72.5033 39.1359C73.4504 38.5446 75.1984 37.1532 76.0693 36.2986C78.3511 34.0379 80.506 31.623 81.0209 30.7336C81.2879 30.2864 81.326 30.1523 81.2179 30.0379C80.8746 29.6653 79.025 31.0218 76.4442 33.541C75.9865 33.9931 75.4209 34.5745 75.1856 34.8329C74.9569 35.0912 74.7153 35.3446 74.6518 35.3993C74.5881 35.449 74.194 35.6477 73.7745 35.8415C73.355 36.0304 71.5561 36.9099 69.77 37.7894C67.9901 38.6687 66.2994 39.4936 66.0133 39.6229C65.7336 39.752 64.8056 40.075 63.9475 40.3433C63.0956 40.6116 61.996 40.9694 61.5065 41.1433C59.8984 41.6998 57.305 42.7383 55.9382 43.3743L55.7095 43.4786L55.4997 43.0215C54.8069 41.4612 53.4403 40.2091 51.6096 39.4539L51.1836 39.275L52.1181 39.2154C53.739 39.111 54.6289 38.8725 55.29 38.3558C55.951 37.844 56.1989 37.1881 56.1989 35.9906C56.1926 33.6701 55.5061 30.8429 54.5209 29.0989C54.5089 29.0775 54.4975 29.0578 54.487 29.0395C54.437 28.9526 54.4054 28.8976 54.4146 28.8505C54.4305 28.7691 54.5691 28.7119 54.9475 28.5553C54.9906 28.5374 55.037 28.5182 55.0865 28.4976C55.951 28.1349 56.8981 27.6876 58.5826 26.8579C59.4216 26.4405 60.2607 26.038 60.4514 25.9585C60.9535 25.7499 61.0616 25.6156 61.0553 25.1784C61.0553 24.5871 60.693 23.8766 59.7204 22.5201C57.6355 19.6331 55.5696 17.3774 55.1755 17.5661C54.9086 17.6954 55.6141 19.7822 56.5549 21.6257C56.9045 22.3214 57.8007 23.7275 58.1567 24.1499C58.3347 24.3536 58.5952 24.6219 58.7351 24.7411C58.8814 24.8604 58.9894 24.9647 58.983 24.9697C58.9768 24.9697 58.8751 24.9896 58.7164 25.0206H58.7161L58.7156 25.0208C58.5567 25.0518 58.3407 25.094 58.1059 25.1386C56.9935 25.3524 56.2244 25.5759 55.2581 25.9685C54.5908 26.2367 54.2348 26.4057 53.2431 26.9125C53.1098 26.9821 53.0842 26.9671 52.6965 26.5497C51.921 25.715 50.726 24.8753 49.7662 24.4928C48.7426 24.0885 47.5939 23.9289 46.5 24.0374V16.25ZM46.5 24.0374C46.2896 24.0583 46.0811 24.0891 45.876 24.13C45.3104 24.2393 44.2933 24.6417 43.7021 24.9896C43.0856 25.3474 42.2337 26.038 41.7252 26.5846L41.363 26.9771L41.1977 26.8976C39.3035 25.9138 37.6635 25.3275 36.049 25.0641C35.7502 25.0144 35.496 24.9698 35.4833 24.9598C35.4705 24.9548 35.5914 24.8355 35.7503 24.7014C36.3478 24.2045 37.0279 23.2604 37.7525 21.9387C38.5152 20.5375 39.259 18.6593 39.3353 17.9239C39.367 17.586 39.3608 17.5412 39.2654 17.5412C39.2018 17.5412 38.9984 17.6556 38.8076 17.7996C37.53 18.7438 34.1356 23.0517 33.5764 24.448C33.481 24.6716 33.4238 24.9499 33.4174 25.1436C33.4174 25.6156 33.5381 25.7598 34.212 26.043C34.5044 26.1673 35.2036 26.5001 35.763 26.7834C37.0596 27.4393 38.3246 28.0355 39.3099 28.4529C39.7358 28.6367 40.0916 28.7907 40.1044 28.8007C40.1171 28.8056 40.0281 28.9995 39.9074 29.223C38.9157 31.1012 38.2674 33.8291 38.2737 36.0701C38.2801 37.5409 38.8331 38.3856 40.0726 38.8328C40.6829 39.0514 41.2359 39.1457 42.3483 39.2154L43.2826 39.275L42.7486 39.5085C41.4075 40.0949 40.2951 40.9594 39.5578 41.988C39.3163 42.3209 38.9285 43.0712 38.8713 43.3047C38.8521 43.3991 38.8204 43.4786 38.8076 43.4786C38.795 43.4786 38.4199 43.3146 37.975 43.1159C35.7566 42.1171 32.7373 41.0041 30.1311 40.224C28.8306 39.8391 28.8155 39.8316 24.5371 37.7042L24.4485 37.6601C22.5987 36.7409 20.7871 35.8565 20.4311 35.6974C20.0116 35.5086 19.7446 35.3546 19.6748 35.2553C19.4904 35.0068 18.1365 33.6055 17.4627 32.9695C15.4667 31.0914 14.0303 30.018 13.4773 29.9981C13.2739 29.9883 13.2611 29.9981 13.242 30.1571C13.1849 30.5994 14.348 32.0652 16.7444 34.5844C18.4416 36.3632 19.1726 37.049 20.3104 37.9384C22.586 39.7073 24.5501 40.6811 27.8174 41.665C29.1014 42.0476 29.2794 42.1221 29.5209 42.3309C31.485 44.065 34.1166 45.2724 37.2059 45.8588C37.6381 45.9383 38.0894 46.0178 38.2165 46.0376C38.4326 46.0624 38.4518 46.0774 38.4899 46.296C38.5089 46.4203 38.528 46.7383 38.528 47.0015C38.528 47.2649 38.5725 47.8462 38.6234 48.2935C38.6743 48.7406 38.7124 49.1132 38.6996 49.1232C38.6932 49.1282 38.1275 49.0239 37.4474 48.8898C35.3942 48.4724 33.7035 48.204 31.7266 47.9705C30.7095 47.8512 29.0441 47.8462 28.1988 47.9655C25.6752 48.3232 22.4652 48.9692 19.9671 49.6251C19.287 49.804 18.5877 49.958 18.4099 49.9679C18.2382 49.9829 16.9224 50.0226 15.4859 50.0624C12.6636 50.1419 11.6974 50.1965 10.9156 50.3158C9.44723 50.5394 9.77776 50.9021 11.672 51.1555C13.242 51.3641 17.075 51.4984 18.092 51.3791C18.3908 51.3442 19.1916 51.3244 20.0307 51.3294C21.8169 51.3394 24.0989 51.1852 27.8491 50.8076C29.7498 50.6139 30.9765 50.5245 31.2626 50.5592C31.574 50.594 33.4936 51.0064 36.8499 51.7567L39.2718 52.2984L39.3544 52.5467C39.7294 53.7641 40.2443 54.748 41.1659 56.0547C41.3249 56.2784 41.452 56.4671 41.452 56.4721C41.452 56.4771 41.2295 56.497 40.9625 56.5169C37.4983 56.7504 32.305 58.887 28.542 61.6298C26.9465 62.7925 20.2595 68.0892 19.8591 68.5116C19.0327 69.3712 18.5624 70.4842 18.2827 72.2482C17.8759 74.7922 18.1237 78.176 18.8611 80.099C19.1409 80.8294 19.5794 81.2666 19.8336 81.0729C20.0625 80.889 20.0498 80.2927 19.7446 77.222C19.573 75.5177 19.5285 73.4358 19.6494 72.5563C19.8717 70.9861 20.3359 69.9775 21.1304 69.3762C21.7788 68.8794 22.8911 68.2085 26.6096 66.062C29.4129 64.4471 30.6143 63.7216 31.2308 63.2695C31.9999 62.708 32.5911 62.4546 35.5405 61.431C37.0151 60.9193 38.725 60.2782 39.2908 60.0249C39.4815 59.9404 39.5578 59.9155 39.4496 59.9801C39.0365 60.2186 38.0259 61.0634 37.7207 61.4161C37.0724 62.1664 36.6593 62.9714 36.4558 63.8509C36.3668 64.2136 36.3477 64.5764 36.3541 65.416C36.3731 67.7961 36.8245 69.9377 37.7144 71.801C39.3225 75.1749 42.291 77.4555 45.857 78.0469C46.0281 78.0751 46.2513 78.0964 46.5 78.1106L46.5 24.0374Z" fill="#7FB800"/>
</svg>
