<svg width="30" height="30" viewBox="0 0 80 80" fill="none" xmlns="http://www.w3.org/2000/svg">
<path fill-rule="evenodd" clip-rule="evenodd" d="M0 40C0 62.0914 17.9086 80 40 80C62.0914 80 80 62.0914 80 40C80 17.9086 62.0914 0 40 0C17.9086 0 0 17.9086 0 40ZM67 37.2V67.8H12.8V37.2H17.5115C17.4767 37.8066 17.4937 38.6037 17.5625 38.9942C17.9561 41.191 19.1923 43.1641 21.0129 44.5015C22.6307 45.6863 24.6461 46.3474 27.0749 46.4847C28.657 46.5711 29.4361 46.4084 30.3821 45.7728C30.9267 45.4117 31.6422 44.6388 32.0159 44.0184C32.0715 43.9218 32.0596 43.9726 31.9801 44.1455C31.7774 44.593 31.2646 45.966 30.8552 47.1458C30.0482 49.4748 29.8455 49.9579 29.4361 50.5223C29.0545 51.0512 28.7126 51.6105 27.3889 53.8836C24.9005 58.1602 24.5507 58.7145 24.1532 59.04C23.7477 59.3756 23.1157 59.6349 22.3207 59.7926C21.6211 59.9349 19.395 59.9197 18.0276 59.7722C15.5352 59.4925 15.0105 59.518 15.1059 59.9095C15.2808 60.6214 18.445 61.2571 20.9334 61.0842C22.2293 60.9927 22.9806 60.8503 23.8074 60.5401C24.4474 60.3011 24.8767 60.0163 25.3298 59.5383C25.7313 59.1162 29.7103 54.0616 30.6604 52.775C30.9704 52.3479 31.36 51.7885 31.519 51.5292C33.3316 48.6001 34.6553 45.071 34.7507 42.9149C34.7627 42.6403 34.7786 42.4166 34.7825 42.4166L35.6411 42.9658C36.4878 43.515 37.0761 43.8048 37.8274 44.0438L38.1733 44.1557L38.3919 45.1524C38.6285 46.2156 38.9026 47.4675 39.1207 48.4639L39.1213 48.4668C39.1961 48.8084 39.2642 49.1198 39.3221 49.3832C39.5089 50.2579 39.5129 50.2833 39.5089 50.9851C39.5049 51.4783 39.4612 52.1445 39.3618 53.1463C38.9723 57.0974 38.9007 58.3026 38.9444 60.5197C38.9444 60.5909 38.9246 60.8096 38.8967 61.0028C38.861 61.2622 38.853 61.7707 38.8689 62.8589C38.9126 65.6812 39.1591 67.5881 39.4771 67.5881C39.5645 67.5881 39.6838 67.2271 39.7474 66.7694C39.8428 66.088 39.8865 65.3201 39.9501 62.986C39.9859 61.7859 40.0296 60.7079 40.0495 60.596C40.0694 60.4841 40.1847 60.0265 40.3039 59.579C40.769 57.8602 41.3414 55.0481 41.6077 53.1869C41.731 52.3225 41.731 51.0919 41.6038 50.0189C41.4726 48.9001 41.1983 47.1814 40.928 45.8236C40.8008 45.1676 40.7014 44.6184 40.7094 44.6083C40.7133 44.5981 41.0313 44.6286 41.409 44.6744C41.7866 44.7151 42.3312 44.7659 42.6174 44.7862L43.1342 44.8168L43.2415 45.4422C43.6628 47.8984 44.5016 49.9223 45.7537 51.4936C46.0439 51.8597 46.3142 52.2462 46.3579 52.3581C46.4017 52.4699 46.5487 52.9378 46.6879 53.4005C47.1847 55.099 47.8883 56.7059 48.6913 58.0026C49.1643 58.7603 50.2774 60.1587 50.9611 60.8554C52.7697 62.6809 54.7016 64.4048 55.4131 64.8167C55.7709 65.0303 55.8782 65.0608 55.9697 64.9743C56.2678 64.6997 55.1826 63.22 53.1672 61.1554C52.8055 60.7892 52.3404 60.3367 52.1337 60.1485C51.927 59.9655 51.7243 59.7722 51.6806 59.7214C51.6408 59.6705 51.4818 59.3552 51.3268 59.0196C51.1757 58.684 50.4721 57.2449 49.7685 55.816C49.065 54.3921 48.4051 53.0395 48.3017 52.8106C48.1984 52.5869 47.94 51.8445 47.7254 51.158C47.5107 50.4765 47.2245 49.5968 47.0854 49.2052C46.6402 47.9187 45.8094 45.844 45.3006 44.7506L45.2171 44.5676L45.5828 44.3998C46.831 43.8455 47.8327 42.7522 48.4369 41.2877L48.58 40.9469L48.6277 41.6945C48.7112 42.9912 48.902 43.7031 49.3154 44.232C49.7248 44.7608 50.2495 44.9591 51.2075 44.9591C53.0639 44.9541 55.3257 44.4049 56.7209 43.6167C56.738 43.6071 56.7538 43.598 56.7684 43.5896C56.8379 43.5496 56.8819 43.5243 56.9196 43.5317C56.9847 43.5444 57.0305 43.6553 57.1558 43.958C57.1701 43.9925 57.1854 44.0296 57.2019 44.0692C57.4921 44.7608 57.8499 45.5185 58.5137 46.8661C58.8476 47.5373 59.1696 48.2086 59.2332 48.3611C59.4001 48.7628 59.5075 48.8493 59.8573 48.8442C60.3303 48.8442 60.8987 48.5544 61.9839 47.7763C64.2935 46.1084 66.0981 44.4557 65.9471 44.1404C65.8437 43.9269 64.1742 44.4913 62.6994 45.2439C62.1429 45.5236 61.018 46.2406 60.6801 46.5254C60.5171 46.6678 60.3025 46.8762 60.2071 46.9881C60.1117 47.1051 60.0282 47.1915 60.0242 47.1864C60.0242 47.1814 60.0083 47.1001 59.9835 46.9731L59.9835 46.9729L59.9834 46.9725C59.9586 46.8454 59.9248 46.6726 59.8891 46.4847C59.7181 45.5948 59.5393 44.9795 59.2252 44.2065C59.0106 43.6726 58.8754 43.3878 58.47 42.5945C58.4143 42.4878 58.4263 42.4674 58.7602 42.1572C59.428 41.5368 60.0998 40.5808 60.4058 39.813C60.7292 38.9941 60.8569 38.0751 60.7701 37.2H67ZM60.7701 37.2C60.7534 37.0317 60.7287 36.8649 60.696 36.7008C60.6086 36.2483 60.2866 35.4346 60.0083 34.9617C59.7221 34.4685 59.1696 33.787 58.7323 33.3802L58.4183 33.0904L58.4819 32.9582C59.269 31.4428 59.738 30.1308 59.9487 28.8392C59.9885 28.6002 60.0242 28.3968 60.0322 28.3866C60.0362 28.3764 60.1316 28.4731 60.2389 28.6002C60.6364 29.0782 61.3917 29.6223 62.449 30.202C63.57 30.8122 65.0726 31.4072 65.6609 31.4682C65.9312 31.4936 65.967 31.4886 65.967 31.4123C65.967 31.3614 65.8755 31.1987 65.7603 31.0461C65.005 30.024 61.5586 27.3085 60.4416 26.8611C60.2627 26.7848 60.0401 26.739 59.8851 26.7339C59.5075 26.7339 59.3922 26.8305 59.1656 27.3696C59.0662 27.6035 58.7999 28.1629 58.5733 28.6104C58.0486 29.6477 57.5716 30.6597 57.2377 31.4479C57.0906 31.7886 56.9674 32.0733 56.9594 32.0835C56.9555 32.0937 56.8004 32.0225 56.6216 31.9259C55.119 31.1326 52.9367 30.6139 51.1439 30.619C49.9673 30.6241 49.2915 31.0665 48.9338 32.0581C48.7589 32.5463 48.6834 32.9887 48.6277 33.8786L48.58 34.6261L48.3932 34.1989C47.9241 33.126 47.2325 32.2361 46.4096 31.6462C46.1433 31.453 45.543 31.1428 45.3562 31.097C45.2807 31.0817 45.2171 31.0563 45.2171 31.0461C45.2171 31.036 45.3483 30.7359 45.5073 30.38C46.3063 28.6053 47.1967 26.1898 47.8208 24.1049C48.1287 23.0645 48.1347 23.0524 49.8366 19.6297L49.8719 19.5588C50.6073 18.079 51.3148 16.6297 51.4421 16.3449C51.5931 16.0093 51.7163 15.7957 51.7958 15.7398C51.9946 15.5923 53.1156 14.5092 53.6244 13.9702C55.1269 12.3734 55.9856 11.2242 56.0015 10.7818C56.0094 10.6191 56.0015 10.6089 55.8743 10.5936C55.5205 10.5479 54.3478 11.4784 52.3325 13.3955C50.9094 14.7533 50.3608 15.3381 49.6493 16.2483C48.2342 18.0688 47.4551 19.6401 46.668 22.2539C46.3619 23.2811 46.3023 23.4235 46.1353 23.6167C44.748 25.188 43.7821 27.2933 43.313 29.7647C43.2494 30.1105 43.1858 30.4715 43.1699 30.5732C43.1501 30.7461 43.1381 30.7614 42.9632 30.7919C42.8638 30.8071 42.6094 30.8224 42.3988 30.8224C42.1881 30.8224 41.723 30.858 41.3652 30.8987C41.0075 30.9394 40.7094 30.9699 40.7014 30.9597C40.6974 30.9546 40.7809 30.502 40.8882 29.9579C41.2221 28.3154 41.4368 26.9628 41.6236 25.3813C41.719 24.5676 41.723 23.2353 41.6276 22.559C41.3414 20.5402 40.8246 17.9722 40.2999 15.9737C40.1568 15.4296 40.0336 14.8702 40.0257 14.7279C40.0137 14.5906 39.9819 13.5379 39.9501 12.3887C39.8865 10.1309 39.8428 9.35793 39.7474 8.73246C39.5685 7.55778 39.2783 7.82221 39.0756 9.33759C38.9087 10.5936 38.8013 13.66 38.8967 14.4736C38.9246 14.7126 38.9405 15.3533 38.9365 16.0246C38.9285 17.4535 39.0518 19.2791 39.3539 22.2793C39.5089 23.7998 39.5804 24.7812 39.5526 25.0101C39.5248 25.2592 39.1949 26.7949 38.5946 29.4799L38.1613 31.4174L37.9626 31.4835C36.9887 31.7835 36.2016 32.1954 35.1562 32.9327C34.9773 33.0599 34.8263 33.1616 34.8223 33.1616C34.8183 33.1616 34.8024 32.9836 34.7865 32.77C34.5997 29.9986 32.8904 25.844 30.6962 22.8336C29.766 21.5572 25.5286 16.2076 25.1907 15.8873C24.503 15.2262 23.6126 14.8499 22.2014 14.6262C20.1662 14.3007 17.4592 14.499 15.9208 15.0889C15.3365 15.3127 14.9867 15.6635 15.1417 15.8669C15.2888 16.05 15.7658 16.0398 18.2224 15.7957C19.5858 15.6584 21.2514 15.6228 21.955 15.7195C23.2111 15.8974 24.018 16.2687 24.499 16.9043C24.8965 17.423 25.4332 18.3129 27.1504 21.2877C28.4423 23.5303 29.0227 24.4914 29.3844 24.9846C29.8336 25.5999 30.0363 26.0729 30.8552 28.4324C31.2646 29.6121 31.7774 30.98 31.9801 31.4326C32.0477 31.5852 32.0676 31.6462 32.0159 31.5597C31.8251 31.2292 31.1493 30.4207 30.8671 30.1766C30.2669 29.6579 29.6229 29.3274 28.9193 29.1646C28.6291 29.0934 28.3389 29.0782 27.6672 29.0833C25.7631 29.0985 24.0498 29.4596 22.5592 30.1715C19.8601 31.458 18.0356 33.8328 17.5625 36.6856C17.5399 36.8225 17.5229 37.001 17.5115 37.2H60.7701Z" fill="#F06543"/>
</svg>
