<svg width="100" height="100" viewBox="0 0 100 100" fill="none" xmlns="http://www.w3.org/2000/svg">
<path fill-rule="evenodd" clip-rule="evenodd" d="M100 50C100 22.3857 77.6143 0 50 0C22.3857 0 0 22.3857 0 50C0 77.6143 22.3857 100 50 100C77.6143 100 100 77.6143 100 50ZM16.25 53.5L16.25 15.25L84 15.25L84 53.5H78.1106C78.1541 52.7417 78.1329 51.7454 78.0469 51.2572C77.5549 48.5112 76.0096 46.0449 73.7339 44.3731C71.7116 42.8921 69.1924 42.0658 66.1564 41.8941C64.1788 41.7861 63.2049 41.9895 62.0224 42.784C61.3416 43.2354 60.4473 44.2015 59.9801 44.977C59.9106 45.0978 59.9255 45.0342 60.0249 44.8181C60.2782 44.2587 60.9193 42.5425 61.431 41.0677C62.4398 38.1565 62.6931 37.5526 63.2049 36.8471C63.6819 36.186 64.1092 35.4869 65.7639 32.6455C68.8744 27.2998 69.3116 26.6069 69.8085 26.2C70.3154 25.7805 71.1054 25.4564 72.0991 25.2593C72.9736 25.0814 75.7563 25.1004 77.4655 25.2847C80.581 25.6344 81.2369 25.6025 81.1176 25.1131C80.899 24.2232 76.9438 23.4286 73.8333 23.6447C72.2134 23.7591 71.2743 23.9371 70.2408 24.3249C69.4408 24.6236 68.9041 24.9796 68.3378 25.5771C67.8359 26.1048 62.8621 32.423 61.6745 34.0312C61.287 34.5651 60.8 35.2644 60.6013 35.5885C58.3355 39.2499 56.6809 43.6612 56.5616 46.3564C56.5466 46.6996 56.5267 46.9793 56.5219 46.9793L55.4486 46.2927C54.3902 45.6062 53.6549 45.244 52.7157 44.9452L52.2834 44.8054L52.0101 43.5595C51.7144 42.2305 51.3717 40.6656 51.0991 39.4201L51.0984 39.4165C51.0049 38.9895 50.9197 38.6002 50.8474 38.271C50.6139 37.1776 50.6089 37.1459 50.6139 36.2686C50.6189 35.6521 50.6735 34.8194 50.7977 33.5671C51.2846 28.6282 51.3741 27.1218 51.3195 24.3504C51.3195 24.2614 51.3442 23.988 51.3791 23.7465C51.4237 23.4223 51.4337 22.7866 51.4139 21.4264C51.3592 17.8985 51.0511 15.5149 50.6536 15.5149C50.5444 15.5149 50.3953 15.9661 50.3158 16.5382C50.1965 17.39 50.1419 18.3499 50.0624 21.2675C50.0176 22.7676 49.963 24.1151 49.9381 24.255C49.9133 24.3949 49.7691 24.9669 49.6201 25.5263C49.0387 27.6748 48.3232 31.1899 47.9904 33.5164C47.8362 34.5969 47.8362 36.1351 47.9952 37.4764C48.1592 38.8749 48.5021 41.0232 48.84 42.7205C48.999 43.5405 49.1232 44.227 49.1132 44.2396C49.1084 44.2524 48.7109 44.2142 48.2387 44.157C47.7667 44.1061 47.086 44.0426 46.7282 44.0172L46.0822 43.979L45.9481 43.1973C45.4215 40.127 44.373 37.5971 42.8079 35.633C42.4451 35.1754 42.1073 34.6922 42.0526 34.5524C41.9979 34.4126 41.8141 33.8277 41.6401 33.2494C41.0191 31.1262 40.1396 29.1176 39.1359 27.4967C38.5446 26.5496 37.1532 24.8016 36.2986 23.9307C34.0379 21.6489 31.623 19.494 30.7336 18.9791C30.2864 18.7121 30.1523 18.674 30.0379 18.7821C29.6653 19.1254 31.0218 20.975 33.541 23.5558C33.9931 24.0135 34.5745 24.5791 34.8329 24.8144C35.0912 25.0431 35.3446 25.2847 35.3993 25.3482C35.449 25.4119 35.6477 25.806 35.8415 26.2255C36.0304 26.645 36.9099 28.4439 37.7894 30.23C38.6687 32.0099 39.4936 33.7006 39.6229 33.9867C39.752 34.2664 40.075 35.1944 40.3433 36.0525C40.6116 36.9044 40.9694 38.004 41.1433 38.4935C41.6998 40.1016 42.7383 42.695 43.3743 44.0618L43.4786 44.2905L43.0215 44.5003C41.4612 45.1931 40.2091 46.5597 39.4539 48.3904L39.275 48.8164L39.2154 47.8819C39.111 46.261 38.8725 45.3711 38.3558 44.71C37.844 44.049 37.1881 43.8011 35.9906 43.8011C33.6701 43.8074 30.8429 44.4939 29.0989 45.4791C29.0775 45.4911 29.0578 45.5025 29.0395 45.513C28.9526 45.563 28.8976 45.5946 28.8505 45.5854C28.7691 45.5695 28.7119 45.4309 28.5553 45.0525C28.5374 45.0094 28.5182 44.963 28.4976 44.9135C28.1349 44.049 27.6876 43.1019 26.8579 41.4174C26.4405 40.5784 26.038 39.7393 25.9585 39.5486C25.7499 39.0465 25.6156 38.9384 25.1784 38.9447C24.5871 38.9447 23.8766 39.307 22.5201 40.2796C19.6331 42.3645 17.3774 44.4304 17.5661 44.8245C17.6954 45.0914 19.7822 44.3859 21.6257 43.4451C22.3214 43.0955 23.7275 42.1993 24.1499 41.8433C24.3536 41.6653 24.6219 41.4048 24.7411 41.2649C24.8604 41.1186 24.9647 41.0106 24.9697 41.017C24.9697 41.0232 24.9896 41.1249 25.0206 41.2836V41.2839L25.0208 41.2844C25.0518 41.4433 25.094 41.6593 25.1386 41.8941C25.3524 43.0065 25.5759 43.7756 25.9685 44.7419C26.2367 45.4092 26.4057 45.7652 26.9125 46.7569C26.9821 46.8902 26.9671 46.9158 26.5497 47.3035C25.715 48.079 24.8753 49.274 24.4928 50.2338C24.0885 51.2574 23.9289 52.4061 24.0374 53.5H16.25ZM24.0374 53.5C24.0583 53.7104 24.0891 53.9189 24.13 54.124C24.2393 54.6896 24.6417 55.7067 24.9896 56.2979C25.3474 56.9144 26.038 57.7663 26.5846 58.2748L26.9771 58.637L26.8976 58.8023C25.9138 60.6965 25.3275 62.3365 25.0641 63.951C25.0144 64.2498 24.9698 64.504 24.9598 64.5167C24.9548 64.5295 24.8355 64.4086 24.7014 64.2497C24.2045 63.6522 23.2604 62.9721 21.9387 62.2475C20.5375 61.4848 18.6593 60.741 17.9239 60.6647C17.586 60.633 17.5412 60.6392 17.5412 60.7346C17.5412 60.7982 17.6556 61.0016 17.7996 61.1924C18.7438 62.47 23.0517 65.8644 24.448 66.4236C24.6716 66.519 24.9499 66.5762 25.1436 66.5826C25.6156 66.5826 25.7598 66.4619 26.043 65.788C26.1673 65.4956 26.5001 64.7964 26.7834 64.237C27.4393 62.9404 28.0355 61.6754 28.4529 60.6901C28.6367 60.2642 28.7907 59.9084 28.8007 59.8956C28.8056 59.8829 28.9995 59.9719 29.223 60.0926C31.1012 61.0843 33.8291 61.7326 36.0701 61.7263C37.5409 61.7199 38.3856 61.1669 38.8328 59.9274C39.0514 59.3171 39.1457 58.7641 39.2154 57.6517L39.275 56.7174L39.5085 57.2514C40.0949 58.5925 40.9594 59.7049 41.988 60.4422C42.3209 60.6837 43.0712 61.0715 43.3047 61.1287C43.3991 61.1479 43.4786 61.1796 43.4786 61.1924C43.4786 61.205 43.3146 61.5801 43.1159 62.025C42.1171 64.2434 41.0041 67.2627 40.224 69.8689C39.8391 71.1694 39.8316 71.1845 37.7042 75.4629L37.6601 75.5515C36.7409 77.4013 35.8565 79.2129 35.6974 79.5689C35.5086 79.9884 35.3546 80.2554 35.2553 80.3252C35.0068 80.5096 33.6055 81.8635 32.9695 82.5373C31.0914 84.5333 30.018 85.9697 29.9981 86.5227C29.9883 86.7261 29.9981 86.7389 30.1571 86.758C30.5994 86.8151 32.0652 85.652 34.5844 83.2556C36.3632 81.5584 37.049 80.8274 37.9384 79.6896C39.7073 77.414 40.6811 75.4499 41.665 72.1826C42.0476 70.8986 42.1221 70.7206 42.3309 70.4791C44.065 68.515 45.2724 65.8834 45.8588 62.7941C45.9383 62.3619 46.0178 61.9106 46.0376 61.7835C46.0624 61.5674 46.0774 61.5482 46.296 61.5101C46.4203 61.4911 46.7383 61.472 47.0015 61.472C47.2649 61.472 47.8462 61.4275 48.2935 61.3766C48.7406 61.3257 49.1132 61.2876 49.1232 61.3004C49.1282 61.3068 49.0239 61.8725 48.8898 62.5526C48.4724 64.6058 48.204 66.2965 47.9705 68.2734C47.8512 69.2905 47.8462 70.9559 47.9655 71.8012C48.3232 74.3248 48.9692 77.5348 49.6251 80.0329C49.804 80.713 49.958 81.4123 49.9679 81.5901C49.9829 81.7618 50.0226 83.0776 50.0624 84.5141C50.1419 87.3364 50.1965 88.3026 50.3158 89.0844C50.5394 90.5528 50.9021 90.2222 51.1555 88.328C51.3641 86.758 51.4984 82.925 51.3791 81.908C51.3442 81.6092 51.3244 80.8084 51.3294 79.9693C51.3394 78.1831 51.1852 75.9011 50.8076 72.1509C50.6139 70.2502 50.5245 69.0235 50.5592 68.7374C50.594 68.426 51.0064 66.5064 51.7567 63.1501L52.2984 60.7282L52.5467 60.6456C53.7641 60.2706 54.748 59.7557 56.0547 58.8341C56.2784 58.6751 56.4671 58.548 56.4721 58.548C56.4771 58.548 56.497 58.7705 56.5169 59.0375C56.7504 62.5017 58.887 67.695 61.6298 71.458C62.7925 73.0535 68.0892 79.7405 68.5116 80.1409C69.3712 80.9673 70.4842 81.4376 72.2482 81.7173C74.7922 82.1241 78.176 81.8763 80.099 81.1389C80.8294 80.8591 81.2666 80.4206 81.0729 80.1664C80.889 79.9375 80.2927 79.9502 77.222 80.2554C75.5177 80.427 73.4358 80.4715 72.5563 80.3506C70.9861 80.1283 69.9775 79.6641 69.3762 78.8696C68.8794 78.2212 68.2085 77.1089 66.062 73.3904C64.4471 70.5871 63.7216 69.3857 63.2695 68.7692C62.708 68.0001 62.4546 67.4089 61.431 64.4595C60.9193 62.9849 60.2782 61.275 60.0249 60.7092C59.9404 60.5185 59.9155 60.4422 59.9801 60.5504C60.2186 60.9635 61.0634 61.9741 61.4161 62.2793C62.1664 62.9276 62.9714 63.3407 63.8509 63.5442C64.2136 63.6332 64.5764 63.6523 65.416 63.6459C67.7961 63.6269 69.9377 63.1755 71.801 62.2856C75.1749 60.6775 77.4555 57.709 78.0469 54.143C78.0751 53.9719 78.0964 53.7487 78.1106 53.5L24.0374 53.5Z" fill="#F06543"/>
</svg>
