<svg width="16" height="16" viewBox="0 0 16 16" fill="none" xmlns="http://www.w3.org/2000/svg">
<path fill-rule="evenodd" clip-rule="evenodd" d="M0 8C0 12.4183 3.58172 16 8 16C12.4183 16 16 12.4183 16 8C16 3.58172 12.4183 0 8 0C3.58172 0 0 3.58172 0 8ZM13.4 7.44V13.56H2.56V7.44H3.5023C3.49534 7.56132 3.49874 7.72074 3.5125 7.79884C3.59122 8.2382 3.83846 8.63282 4.20258 8.9003C4.52614 9.13726 4.92922 9.26948 5.41498 9.29694C5.7314 9.31422 5.88722 9.28168 6.07642 9.15456C6.18534 9.08234 6.32844 8.92776 6.40318 8.80368C6.4143 8.78436 6.41192 8.79452 6.39602 8.8291C6.35548 8.9186 6.25292 9.1932 6.17104 9.42916C6.00964 9.89496 5.9691 9.99158 5.88722 10.1045C5.8109 10.2102 5.74252 10.3221 5.47778 10.7767C4.9801 11.632 4.91014 11.7429 4.83064 11.808C4.74954 11.8751 4.62314 11.927 4.46414 11.9585C4.32422 11.987 3.879 11.9839 3.60552 11.9544C3.10704 11.8985 3.0021 11.9036 3.02118 11.9819C3.05616 12.1243 3.689 12.2514 4.18668 12.2168C4.44586 12.1985 4.59612 12.1701 4.76148 12.108C4.88948 12.0602 4.97534 12.0033 5.06596 11.9077C5.14626 11.8232 5.94206 10.8123 6.13208 10.555C6.19408 10.4696 6.272 10.3577 6.3038 10.3058C6.66632 9.72002 6.93106 9.0142 6.95014 8.58298C6.95254 8.52806 6.95572 8.48332 6.9565 8.48332L7.12822 8.59316C7.29756 8.703 7.41522 8.76096 7.56548 8.80876L7.63466 8.83114L7.67838 9.03048C7.7257 9.24312 7.78052 9.4935 7.82414 9.69278L7.82426 9.69336C7.83922 9.76168 7.85284 9.82396 7.86442 9.87664C7.90178 10.0516 7.90258 10.0567 7.90178 10.197C7.90098 10.2957 7.89224 10.4289 7.87236 10.6293C7.79446 11.4195 7.78014 11.6605 7.78888 12.1039C7.78888 12.1182 7.78492 12.1619 7.77934 12.2006C7.7722 12.2524 7.7706 12.3541 7.77378 12.5718C7.78252 13.1362 7.83182 13.5176 7.89542 13.5176C7.9129 13.5176 7.93676 13.4454 7.94948 13.3539C7.96856 13.2176 7.9773 13.064 7.99002 12.5972C7.99718 12.3572 8.00592 12.1416 8.0099 12.1192C8.01388 12.0968 8.03694 12.0053 8.06078 11.9158C8.1538 11.572 8.26828 11.0096 8.32154 10.6374C8.3462 10.4645 8.3462 10.2184 8.32076 10.0038C8.29452 9.78002 8.23966 9.43628 8.1856 9.16472C8.16016 9.03352 8.14028 8.92368 8.14188 8.92166C8.14266 8.91962 8.20626 8.92572 8.2818 8.93488C8.35732 8.94302 8.46624 8.95318 8.52348 8.95724L8.62684 8.96336L8.6483 9.08844C8.73256 9.57968 8.90032 9.98446 9.15074 10.2987C9.20878 10.3719 9.26284 10.4492 9.27158 10.4716C9.28034 10.494 9.30974 10.5876 9.33758 10.6801C9.43694 11.0198 9.57766 11.3412 9.73826 11.6005C9.83286 11.7521 10.0555 12.0317 10.1922 12.1711C10.5539 12.5362 10.9403 12.881 11.0826 12.9633C11.1542 13.0061 11.1756 13.0122 11.1939 12.9949C11.2536 12.9399 11.0365 12.644 10.6334 12.2311C10.5611 12.1578 10.4681 12.0673 10.4267 12.0297C10.3854 11.9931 10.3449 11.9544 10.3361 11.9443C10.3282 11.9341 10.2964 11.871 10.2654 11.8039C10.2351 11.7368 10.0944 11.449 9.9537 11.1632C9.813 10.8784 9.68102 10.6079 9.66034 10.5621C9.63968 10.5174 9.588 10.3689 9.54508 10.2316C9.50214 10.0953 9.4449 9.91936 9.41708 9.84104C9.32804 9.58374 9.16188 9.1688 9.06012 8.95012L9.04342 8.91352L9.11656 8.87996C9.3662 8.7691 9.56654 8.55044 9.68738 8.25754L9.716 8.18938L9.72554 8.3389C9.74224 8.59824 9.7804 8.74062 9.86308 8.8464C9.94496 8.95216 10.0499 8.99182 10.2415 8.99182C10.6128 8.99082 11.0651 8.88098 11.3442 8.72334C11.3476 8.72142 11.3508 8.7196 11.3537 8.71792C11.3676 8.70992 11.3764 8.70486 11.3839 8.70634C11.3969 8.70888 11.4061 8.73106 11.4312 8.7916C11.434 8.7985 11.4371 8.80592 11.4404 8.81384C11.4984 8.95216 11.57 9.1037 11.7027 9.37322C11.7695 9.50746 11.8339 9.64172 11.8466 9.67222C11.88 9.75256 11.9015 9.76986 11.9715 9.76884C12.0661 9.76884 12.1797 9.71088 12.3968 9.55526C12.8587 9.22168 13.2196 8.89114 13.1894 8.82808C13.1687 8.78538 12.8348 8.89826 12.5399 9.04878C12.4286 9.10472 12.2036 9.24812 12.136 9.30508C12.1034 9.33356 12.0605 9.37524 12.0414 9.39762C12.0223 9.42102 12.0056 9.4383 12.0048 9.43728C12.0048 9.43628 12.0017 9.42002 11.9967 9.39462V9.39458L11.9967 9.3945C11.9917 9.36908 11.985 9.33452 11.9778 9.29694C11.9436 9.11896 11.9079 8.9959 11.845 8.8413C11.8021 8.73452 11.7751 8.67756 11.694 8.5189C11.6829 8.49756 11.6853 8.49348 11.752 8.43144C11.8856 8.30736 12.02 8.11616 12.0812 7.9626C12.1458 7.79882 12.1714 7.61502 12.154 7.44H13.4ZM12.154 7.44C12.1507 7.40634 12.1457 7.37298 12.1392 7.34016C12.1217 7.24966 12.0573 7.08692 12.0017 6.99234C11.9444 6.8937 11.8339 6.7574 11.7465 6.67604L11.6837 6.61808L11.6964 6.59164C11.8538 6.28856 11.9476 6.02616 11.9897 5.76784C11.9977 5.72004 12.0048 5.67936 12.0064 5.67732C12.0072 5.67528 12.0263 5.69462 12.0478 5.72004C12.1273 5.81564 12.2783 5.92446 12.4898 6.0404C12.714 6.16244 13.0145 6.28144 13.1322 6.29364C13.1862 6.29872 13.1934 6.29772 13.1934 6.28246C13.1934 6.27228 13.1751 6.23974 13.1521 6.20922C13.001 6.0048 12.3117 5.4617 12.0883 5.37222C12.0525 5.35696 12.008 5.3478 11.977 5.34678C11.9015 5.34678 11.8784 5.3661 11.8331 5.47392C11.8132 5.5207 11.76 5.63258 11.7147 5.72208C11.6097 5.92954 11.5143 6.13194 11.4475 6.28958C11.4181 6.35772 11.3935 6.41466 11.3919 6.4167C11.3911 6.41874 11.3601 6.4045 11.3243 6.38518C11.0238 6.22652 10.5873 6.12278 10.2288 6.1238C9.99346 6.12482 9.8583 6.2133 9.78676 6.41162C9.75178 6.50926 9.73668 6.59774 9.72554 6.77572L9.716 6.92522L9.67864 6.83978C9.58482 6.6252 9.4465 6.44722 9.28192 6.32924C9.22866 6.2906 9.1086 6.22856 9.07124 6.2194C9.05614 6.21634 9.04342 6.21126 9.04342 6.20922C9.04342 6.2072 9.06966 6.14718 9.10146 6.076C9.26126 5.72106 9.43934 5.23796 9.56416 4.82098C9.62574 4.6129 9.62694 4.61048 9.96732 3.92594L9.97438 3.91176C10.1215 3.6158 10.263 3.32594 10.2884 3.26898C10.3186 3.20186 10.3433 3.15914 10.3592 3.14796C10.3989 3.11846 10.6231 2.90184 10.7249 2.79404C11.0254 2.47468 11.1971 2.24484 11.2003 2.15636C11.2019 2.12382 11.2003 2.12178 11.1749 2.11872C11.1041 2.10958 10.8696 2.29568 10.4665 2.6791C10.1819 2.95066 10.0722 3.06762 9.92986 3.24966C9.64684 3.61376 9.49102 3.92802 9.3336 4.45078C9.27238 4.65622 9.26046 4.6847 9.22706 4.72334C8.9496 5.0376 8.75642 5.45866 8.6626 5.95294C8.64988 6.0221 8.63716 6.0943 8.63398 6.11464C8.63002 6.14922 8.62762 6.15228 8.59264 6.15838C8.57276 6.16142 8.52188 6.16448 8.47976 6.16448C8.43762 6.16448 8.3446 6.1716 8.27304 6.17974C8.2015 6.18788 8.14188 6.19398 8.14028 6.19194C8.13948 6.19092 8.15618 6.1004 8.17764 5.99158C8.24442 5.66308 8.28736 5.39256 8.32472 5.07626C8.3438 4.91352 8.3446 4.64706 8.32552 4.5118C8.26828 4.10804 8.16492 3.59444 8.05998 3.19474C8.03136 3.08592 8.00672 2.97404 8.00514 2.94558C8.00274 2.91812 7.99638 2.70758 7.99002 2.47774C7.9773 2.02618 7.96856 1.87159 7.94948 1.74649C7.9137 1.51156 7.85566 1.56444 7.81512 1.86752C7.78174 2.11872 7.76026 2.732 7.77934 2.89472C7.78492 2.94252 7.7881 3.07066 7.7873 3.20492C7.7857 3.4907 7.81036 3.85582 7.87078 4.45586C7.90178 4.75996 7.91608 4.95624 7.91052 5.00202C7.90496 5.05184 7.83898 5.35898 7.71892 5.89598L7.63226 6.28348L7.59252 6.2967C7.39774 6.3567 7.24032 6.43908 7.03124 6.58654C6.99546 6.61198 6.96526 6.63232 6.96446 6.63232C6.96366 6.63232 6.96048 6.59672 6.9573 6.554C6.91994 5.99972 6.57808 5.1688 6.13924 4.56672C5.9532 4.31144 5.10572 3.24152 5.03814 3.17746C4.9006 3.04524 4.72252 2.96998 4.44028 2.92524C4.03324 2.86014 3.49184 2.8998 3.18416 3.01778C3.0673 3.06254 2.99734 3.1327 3.02834 3.17338C3.05776 3.21 3.15316 3.20796 3.64448 3.15914C3.91716 3.13168 4.25028 3.12456 4.391 3.1439C4.64222 3.17948 4.8036 3.25374 4.8998 3.38086C4.9793 3.4846 5.08664 3.66258 5.43008 4.25754C5.68846 4.70606 5.80454 4.89828 5.87688 4.99692C5.96672 5.11998 6.00726 5.21458 6.17104 5.68648C6.25292 5.92242 6.35548 6.196 6.39602 6.28652C6.40954 6.31704 6.41352 6.32924 6.40318 6.31194C6.36502 6.24584 6.22986 6.08414 6.17342 6.03532C6.05338 5.93158 5.92458 5.86548 5.78386 5.83292C5.72582 5.81868 5.66778 5.81564 5.53344 5.81666C5.15262 5.8197 4.80996 5.89192 4.51184 6.0343C3.97202 6.2916 3.60712 6.76656 3.5125 7.33712C3.50798 7.3645 3.50458 7.4002 3.5023 7.44H12.154Z" fill="#F06543"/>
</svg>
