<svg width="100" height="100" viewBox="0 0 100 100" fill="none" xmlns="http://www.w3.org/2000/svg">
<path fill-rule="evenodd" clip-rule="evenodd" d="M0 50C0 77.6143 22.3857 100 50 100C77.6143 100 100 77.6143 100 50C100 22.3857 77.6143 0 50 0C22.3857 0 0 22.3857 0 50ZM83.75 46.5V84.75H16V46.5H21.8894C21.8459 47.2583 21.8671 48.2546 21.9531 48.7428C22.4451 51.4888 23.9904 53.9551 26.2661 55.6269C28.2884 57.1079 30.8076 57.9342 33.8436 58.1059C35.8212 58.2139 36.7951 58.0105 37.9776 57.216C38.6584 56.7646 39.5527 55.7985 40.0199 55.023C40.0894 54.9022 40.0745 54.9658 39.9751 55.1819C39.7218 55.7413 39.0807 57.4575 38.569 58.9323C37.5602 61.8435 37.3069 62.4474 36.7951 63.1529C36.3181 63.814 35.8908 64.5131 34.2361 67.3545C31.1256 72.7002 30.6884 73.3931 30.1915 73.8C29.6846 74.2195 28.8946 74.5436 27.9009 74.7407C27.0264 74.9186 24.2437 74.8996 22.5345 74.7153C19.419 74.3656 18.7631 74.3975 18.8824 74.8869C19.101 75.7768 23.0562 76.5714 26.1667 76.3553C27.7866 76.2409 28.7257 76.0629 29.7592 75.6751C30.5592 75.3764 31.0959 75.0204 31.6622 74.4229C32.1641 73.8952 37.1379 67.577 38.3255 65.9688C38.713 65.4349 39.2 64.7356 39.3987 64.4115C41.6645 60.7501 43.3191 56.3388 43.4384 53.6436C43.4534 53.3004 43.4733 53.0207 43.4781 53.0207L44.5514 53.7073C45.6098 54.3938 46.3451 54.756 47.2843 55.0548L47.7166 55.1946L47.9899 56.4405C48.2856 57.7695 48.6283 59.3344 48.9009 60.5799L48.9016 60.5835C48.9951 61.0105 49.0803 61.3998 49.1526 61.729C49.3861 62.8224 49.3911 62.8541 49.3861 63.7314C49.3811 64.3479 49.3265 65.1806 49.2023 66.4329C48.7154 71.3718 48.6259 72.8782 48.6805 75.6496C48.6805 75.7386 48.6558 76.012 48.6209 76.2535C48.5763 76.5777 48.5663 77.2134 48.5861 78.5736C48.6408 82.1015 48.9489 84.4851 49.3464 84.4851C49.4556 84.4851 49.6047 84.0339 49.6842 83.4618C49.8035 82.61 49.8581 81.6501 49.9376 78.7325C49.9824 77.2324 50.037 75.8849 50.0619 75.745C50.0867 75.6051 50.2309 75.0331 50.3799 74.4737C50.9613 72.3252 51.6768 68.8101 52.0096 66.4836C52.1638 65.4031 52.1638 63.8649 52.0048 62.5236C51.8408 61.1251 51.4979 58.9768 51.16 57.2795C51.001 56.4595 50.8768 55.773 50.8868 55.7604C50.8916 55.7476 51.2891 55.7858 51.7613 55.843C52.2333 55.8939 52.914 55.9574 53.2718 55.9828L53.9178 56.021L54.0519 56.8027C54.5785 59.873 55.627 62.4029 57.1921 64.367C57.5549 64.8246 57.8927 65.3078 57.9474 65.4476C58.0021 65.5874 58.1859 66.1723 58.3599 66.7506C58.9809 68.8738 59.8604 70.8824 60.8641 72.5033C61.4554 73.4504 62.8468 75.1984 63.7014 76.0693C65.9621 78.3511 68.377 80.506 69.2664 81.0209C69.7136 81.2879 69.8477 81.326 69.9621 81.2179C70.3347 80.8746 68.9782 79.025 66.459 76.4442C66.0069 75.9865 65.4255 75.4209 65.1671 75.1856C64.9088 74.9569 64.6554 74.7153 64.6007 74.6518C64.551 74.5881 64.3523 74.194 64.1585 73.7745C63.9696 73.355 63.0901 71.5561 62.2106 69.77C61.3313 67.9901 60.5064 66.2994 60.3771 66.0133C60.248 65.7336 59.925 64.8056 59.6567 63.9475C59.3884 63.0956 59.0306 61.996 58.8567 61.5065C58.3002 59.8984 57.2617 57.305 56.6257 55.9382L56.5214 55.7095L56.9785 55.4997C58.5388 54.8069 59.7909 53.4403 60.5461 51.6096L60.725 51.1836L60.7846 52.1181C60.889 53.739 61.1275 54.6289 61.6442 55.29C62.156 55.951 62.8119 56.1989 64.0094 56.1989C66.3299 56.1926 69.1571 55.5061 70.9011 54.5209C70.9225 54.5089 70.9422 54.4975 70.9605 54.487C71.0474 54.437 71.1024 54.4054 71.1495 54.4146C71.2309 54.4305 71.2881 54.5691 71.4447 54.9475C71.4626 54.9906 71.4818 55.037 71.5024 55.0865C71.8651 55.951 72.3124 56.8981 73.1421 58.5826C73.5595 59.4216 73.962 60.2607 74.0415 60.4514C74.2501 60.9535 74.3844 61.0616 74.8216 61.0553C75.4129 61.0553 76.1234 60.693 77.4799 59.7204C80.3669 57.6355 82.6226 55.5696 82.4339 55.1755C82.3046 54.9086 80.2178 55.6141 78.3743 56.5549C77.6786 56.9045 76.2725 57.8007 75.8501 58.1567C75.6464 58.3347 75.3781 58.5952 75.2589 58.7351C75.1396 58.8814 75.0353 58.9894 75.0303 58.983C75.0303 58.9768 75.0104 58.8751 74.9794 58.7164V58.7161L74.9792 58.7156C74.9482 58.5567 74.906 58.3407 74.8614 58.1059C74.6476 56.9935 74.4241 56.2244 74.0315 55.2581C73.7633 54.5908 73.5943 54.2348 73.0875 53.2431C73.0179 53.1098 73.0329 53.0842 73.4503 52.6965C74.285 51.921 75.1247 50.726 75.5072 49.7662C75.9115 48.7426 76.0711 47.5939 75.9626 46.5H83.75ZM75.9626 46.5C75.9417 46.2896 75.9109 46.0811 75.87 45.876C75.7607 45.3104 75.3583 44.2933 75.0104 43.7021C74.6526 43.0856 73.962 42.2337 73.4154 41.7252L73.0229 41.363L73.1024 41.1977C74.0862 39.3035 74.6725 37.6635 74.9359 36.049C74.9856 35.7502 75.0302 35.496 75.0402 35.4833C75.0452 35.4705 75.1645 35.5914 75.2986 35.7503C75.7955 36.3478 76.7396 37.0279 78.0613 37.7525C79.4625 38.5152 81.3407 39.259 82.0761 39.3353C82.414 39.367 82.4588 39.3608 82.4588 39.2654C82.4588 39.2018 82.3444 38.9984 82.2004 38.8076C81.2562 37.53 76.9483 34.1356 75.552 33.5764C75.3284 33.481 75.0501 33.4238 74.8564 33.4174C74.3844 33.4174 74.2402 33.5381 73.957 34.212C73.8327 34.5044 73.4999 35.2036 73.2166 35.763C72.5607 37.0596 71.9645 38.3246 71.5471 39.3099C71.3633 39.7358 71.2093 40.0916 71.1993 40.1044C71.1944 40.1171 71.0005 40.0281 70.777 39.9074C68.8988 38.9157 66.1709 38.2674 63.9299 38.2737C62.4591 38.2801 61.6144 38.8331 61.1672 40.0726C60.9486 40.6829 60.8543 41.2359 60.7846 42.3483L60.725 43.2826L60.4915 42.7486C59.9051 41.4075 59.0406 40.2951 58.012 39.5578C57.6791 39.3163 56.9288 38.9285 56.6953 38.8713C56.6009 38.8521 56.5214 38.8204 56.5214 38.8076C56.5214 38.795 56.6854 38.4199 56.8841 37.975C57.8829 35.7566 58.9959 32.7373 59.776 30.1311C60.1609 28.8306 60.1684 28.8155 62.2958 24.5371L62.3399 24.4485C63.2591 22.5987 64.1435 20.7871 64.3026 20.4311C64.4914 20.0116 64.6454 19.7446 64.7447 19.6748C64.9932 19.4904 66.3945 18.1365 67.0305 17.4627C68.9086 15.4667 69.982 14.0303 70.0019 13.4773C70.0117 13.2739 70.0019 13.2611 69.8429 13.242C69.4006 13.1849 67.9348 14.348 65.4156 16.7444C63.6368 18.4416 62.951 19.1726 62.0616 20.3104C60.2927 22.586 59.3189 24.5501 58.335 27.8174C57.9524 29.1014 57.8779 29.2794 57.6691 29.5209C55.935 31.485 54.7276 34.1166 54.1412 37.2059C54.0617 37.6381 53.9822 38.0894 53.9624 38.2165C53.9376 38.4326 53.9226 38.4518 53.704 38.4899C53.5797 38.5089 53.2617 38.528 52.9985 38.528C52.7351 38.528 52.1538 38.5725 51.7065 38.6234C51.2594 38.6743 50.8868 38.7124 50.8768 38.6996C50.8718 38.6932 50.9761 38.1275 51.1102 37.4474C51.5276 35.3942 51.796 33.7035 52.0295 31.7266C52.1488 30.7095 52.1538 29.0441 52.0345 28.1988C51.6768 25.6752 51.0308 22.4652 50.3749 19.9671C50.196 19.287 50.042 18.5877 50.0321 18.4099C50.0171 18.2382 49.9774 16.9224 49.9376 15.4859C49.8581 12.6636 49.8035 11.6974 49.6842 10.9156C49.4606 9.44723 49.0979 9.77776 48.8445 11.672C48.6359 13.242 48.5016 17.075 48.6209 18.092C48.6558 18.3908 48.6756 19.1916 48.6706 20.0307C48.6606 21.8169 48.8148 24.0989 49.1924 27.8491C49.3861 29.7498 49.4755 30.9765 49.4408 31.2626C49.406 31.574 48.9936 33.4936 48.2433 36.8499L47.7016 39.2718L47.4533 39.3544C46.2359 39.7294 45.252 40.2443 43.9453 41.1659C43.7216 41.3249 43.5329 41.452 43.5279 41.452C43.5229 41.452 43.503 41.2295 43.4831 40.9625C43.2496 37.4983 41.113 32.305 38.3702 28.542C37.2075 26.9465 31.9108 20.2595 31.4884 19.8591C30.6288 19.0327 29.5158 18.5624 27.7518 18.2827C25.2078 17.8759 21.824 18.1237 19.901 18.8611C19.1706 19.1409 18.7334 19.5794 18.9271 19.8336C19.111 20.0625 19.7073 20.0498 22.778 19.7446C24.4823 19.573 26.5642 19.5285 27.4437 19.6494C29.0139 19.8717 30.0225 20.3359 30.6238 21.1304C31.1206 21.7788 31.7915 22.8911 33.938 26.6096C35.5529 29.4129 36.2784 30.6143 36.7305 31.2308C37.292 31.9999 37.5454 32.5911 38.569 35.5405C39.0807 37.0151 39.7218 38.725 39.9751 39.2908C40.0596 39.4815 40.0845 39.5578 40.0199 39.4496C39.7814 39.0365 38.9366 38.0259 38.5839 37.7207C37.8336 37.0724 37.0286 36.6593 36.1491 36.4558C35.7864 36.3668 35.4236 36.3477 34.584 36.3541C32.2039 36.3731 30.0623 36.8245 28.199 37.7144C24.8251 39.3225 22.5445 42.291 21.9531 45.857C21.9249 46.0281 21.9036 46.2513 21.8894 46.5H75.9626Z" fill="#F06543"/>
</svg>
